<?xml version="1.0" encoding="utf-8" standalone="no"?><!DOCTYPE svg PUBLIC "-//W3C//DTD SVG 20010904//EN" "http://www.w3.org/TR/2001/REC-SVG-20010904/DTD/svg10.dtd"><svg xmlns="http://www.w3.org/2000/svg" width="555" height="357" xmlns:xlink="http://www.w3.org/1999/xlink"><source><![CDATA[Web->Capybara: Grabs link
Capybara->Database: Saves link
Capybara->Database: Adds tags to link
Database->User: Shows links
Database->User: Filters links by tag]]></source><desc></desc><defs><marker viewBox="0 0 5 5" markerWidth="5" markerHeight="5" orient="auto" refX="5" refY="2.5" id="markerArrowBlock"><path d="M 0 0 L 5 2.5 L 0 5 z"></path></marker><marker viewBox="0 0 9.6 16" markerWidth="4" markerHeight="16" orient="auto" refX="9.6" refY="8" id="markerArrowOpen"><path d="M 9.6,8 1.92,16 0,13.7 5.76,8 0,2.286 1.92,0 9.6,8 z"></path></marker></defs><g class="title"></g><g class="actor"><path d="M10,20C33.4,17.9 22.6,22.1 62.5,20.0C60.8,26.8 64.2,36.8 62.5,62.5C52.2,64.6 49.9,60.4 10.0,62.5C11.7,52.3 8.3,39.8 10.0,20.0" stroke="#000000" fill="#ffffff" style="stroke-width: 2;"></path><text x="20" y="44" style="font-size: 16px; font-family: danielbd;"><tspan x="20">Web</tspan></text></g><g class="actor"><path d="M10,295C23.8,297.1 44.8,292.9 62.5,295.0C64.2,306.1 60.8,317.9 62.5,337.5C18.9,335.4 43.3,339.6 10.0,337.5C11.7,321.2 8.3,306.8 10.0,295.0" stroke="#000000" fill="#ffffff" style="stroke-width: 2;"></path><text x="20" y="319" style="font-size: 16px; font-family: danielbd;"><tspan x="20">Web</tspan></text></g><path d="M36.3,62.5C45.6,188.6 27.0,239.2 36.3,295.0" stroke="#000000" fill="none" style="stroke-width: 2;"></path><g class="actor"><path d="M94.15625,20C136.2,15.9 127.2,24.1 197.8,20.0C199.5,52.3 196.1,48.1 197.8,62.5C172.9,58.4 176.1,66.6 94.2,62.5C95.9,50.8 92.5,55.1 94.2,20.0" stroke="#000000" fill="#ffffff" style="stroke-width: 2;"></path><text x="104.15625" y="44" style="font-size: 16px; font-family: danielbd;"><tspan x="104.15625">Capybara</tspan></text></g><g class="actor"><path d="M94.15625,295C181.2,290.9 110.7,299.1 197.8,295.0C196.1,330.7 199.5,327.3 197.8,337.5C150.1,341.6 172.9,333.4 94.2,337.5C95.9,305.2 92.5,310.6 94.2,295.0" stroke="#000000" fill="#ffffff" style="stroke-width: 2;"></path><text x="104.15625" y="319" style="font-size: 16px; font-family: danielbd;"><tspan x="104.15625">Capybara</tspan></text></g><path d="M146.0,62.5C155.3,180.0 136.7,125.9 146.0,295.0" stroke="#000000" fill="none" style="stroke-width: 2;"></path><g class="actor"><path d="M265.7265625,20C342.7,23.9 284.3,16.1 363.7,20.0C362.0,42.4 365.4,36.4 363.7,62.5C335.0,58.6 320.5,66.4 265.7,62.5C267.4,52.3 264.0,30.2 265.7,20.0" stroke="#000000" fill="#ffffff" style="stroke-width: 2;"></path><text x="275.7265625" y="44" style="font-size: 16px; font-family: danielbd;"><tspan x="275.7265625">Database</tspan></text></g><g class="actor"><path d="M265.7265625,295C328.2,298.9 343.8,291.1 363.7,295.0C362.0,330.7 365.4,323.0 363.7,337.5C348.0,341.4 321.3,333.6 265.7,337.5C267.4,305.2 264.0,316.7 265.7,295.0" stroke="#000000" fill="#ffffff" style="stroke-width: 2;"></path><text x="275.7265625" y="319" style="font-size: 16px; font-family: danielbd;"><tspan x="275.7265625">Database</tspan></text></g><path d="M314.7,62.5C324.0,125.7 305.4,239.2 314.7,295.0" stroke="#000000" fill="none" style="stroke-width: 2;"></path><g class="actor"><path d="M461.59375,20C510.0,22.5 495.8,17.5 525.3,20.0C523.6,41.9 527.0,34.4 525.3,62.5C486.7,60.0 476.9,65.0 461.6,62.5C463.3,55.7 459.9,43.4 461.6,20.0" stroke="#000000" fill="#ffffff" style="stroke-width: 2;"></path><text x="471.59375" y="44" style="font-size: 16px; font-family: danielbd;"><tspan x="471.59375">User</tspan></text></g><g class="actor"><path d="M461.59375,295C497.2,297.5 500.8,292.5 525.3,295.0C527.0,301.8 523.6,323.4 525.3,337.5C504.2,335.0 512.9,340.0 461.6,337.5C463.3,318.3 459.9,305.2 461.6,295.0" stroke="#000000" fill="#ffffff" style="stroke-width: 2;"></path><text x="471.59375" y="319" style="font-size: 16px; font-family: danielbd;"><tspan x="471.59375">User</tspan></text></g><path d="M493.4,62.5C484.1,99.7 502.7,257.8 493.4,295.0" stroke="#000000" fill="none" style="stroke-width: 2;"></path><g class="signal"><text x="46.2734375" y="90.25" style="font-size: 16px; font-family: danielbd;"><tspan x="46.2734375">Grabs link</tspan></text><path d="M36.3,105.0C74.2,100.6 117.6,109.4 146.0,105.0" stroke="#000000" fill="none" style="stroke-width: 2; marker-end: url(&quot;#markerArrowBlock&quot;);"></path></g><g class="signal"><text x="190.125" y="132.75" style="font-size: 16px; font-family: danielbd;"><tspan x="190.09375">Saves link</tspan></text><path d="M146.0,147.5C260.3,154.3 287.4,140.7 314.7,147.5" stroke="#000000" fill="none" style="stroke-width: 2; marker-end: url(&quot;#markerArrowBlock&quot;);"></path></g><g class="signal"><text x="155.9609375" y="175.25" style="font-size: 16px; font-family: danielbd;"><tspan x="155.9609375">Adds tags to link</tspan></text><path d="M146.0,190.0C240.4,196.8 173.0,183.2 314.7,190.0" stroke="#000000" fill="none" style="stroke-width: 2; marker-end: url(&quot;#markerArrowBlock&quot;);"></path></g><g class="signal"><text x="355.234375" y="217.75" style="font-size: 16px; font-family: danielbd;"><tspan x="355.203125">Shows links</tspan></text><path d="M314.7,232.5C432.4,225.4 425.8,239.6 493.4,232.5" stroke="#000000" fill="none" style="stroke-width: 2; marker-end: url(&quot;#markerArrowBlock&quot;);"></path></g><g class="signal"><text x="324.7265625" y="260.25" style="font-size: 16px; font-family: danielbd;"><tspan x="324.7265625">Filters links by tag</tspan></text><path d="M314.7,275.0C357.6,267.9 343.3,282.1 493.4,275.0" stroke="#000000" fill="none" style="stroke-width: 2; marker-end: url(&quot;#markerArrowBlock&quot;);"></path></g></svg>